<svg xmlns="http://www.w3.org/2000/svg" viewBox="0 0 171.51 139.38"><path d="M171.51,16.5A70.35,70.35,0,0,1,151.3,22,35.34,35.34,0,0,0,166.77,2.57a70.32,70.32,0,0,1-22.35,8.54,35.22,35.22,0,0,0-60,32.09A99.85,99.85,0,0,1,11.94,6.44a35.24,35.24,0,0,0,10.89,47A35.23,35.23,0,0,1,6.89,49v.44A35.2,35.2,0,0,0,35.11,84a35.36,35.36,0,0,1-15.89.6A35.24,35.24,0,0,0,52.09,109a70.57,70.57,0,0,1-43.7,15.06A72.57,72.57,0,0,1,0,123.57a99.63,99.63,0,0,0,53.94,15.81c64.72,0,100.11-53.62,100.11-100.12,0-1.52,0-3-.1-4.55A71.34,71.34,0,0,0,171.5,16.5Z" transform="translate(0 0)" style="fill:#2aa9e0"/></svg>